<svg xmlns="http://www.w3.org/2000/svg" xmlns:xlink="http://www.w3.org/1999/xlink" viewBox="0 0 132.08 305.66"><defs><style>.cls-1{fill:none;}.cls-2{opacity:0.4;}.cls-3{mix-blend-mode:soft-light;}.cls-13,.cls-14,.cls-4{fill:#fff;}.cls-5,.cls-7{fill:#443425;}.cls-6{isolation:isolate;}.cls-7{opacity:0.2;}.cls-8{fill:#ffda96;}.cls-9{fill:#c68b8b;}.cls-10{fill:url(#Nueva_muestra_de_motivo_3);}.cls-11{fill:#3f3f3f;opacity:0.37;mix-blend-mode:multiply;}.cls-12{fill:#603813;}.cls-13,.cls-14{opacity:0.05;}.cls-14{stroke:#fff;stroke-linecap:round;stroke-linejoin:round;stroke-width:1.29px;}.cls-15{fill:#4b2c15;}.cls-16{fill:#725e59;}.cls-17{fill:#332d25;opacity:0.8;}.cls-18{fill:#443c3c;}</style><pattern id="Nueva_muestra_de_motivo_3" data-name="Nueva muestra de motivo 3" width="64" height="64" patternUnits="userSpaceOnUse" viewBox="0 0 64 64"><rect class="cls-1" width="64" height="64"/><g class="cls-2"><g class="cls-3"><rect class="cls-4" width="4.02" height="64"/><rect class="cls-4" x="8.03" width="4.02" height="64"/><rect class="cls-4" x="16.07" width="4.02" height="64"/><rect class="cls-4" x="24.1" width="4.02" height="64"/><rect class="cls-4" x="32.14" width="4.02" height="64"/><rect class="cls-4" x="40.17" width="4.02" height="64"/><rect class="cls-4" x="48.21" width="4.02" height="64"/><rect class="cls-4" x="56.24" width="4.02" height="64"/></g><g class="cls-3"><rect class="cls-5" y="3.76" width="64" height="4.04"/><rect class="cls-5" y="11.84" width="64" height="4.04"/><rect class="cls-5" y="19.91" width="64" height="4.04"/><rect class="cls-5" y="27.99" width="64" height="4.04"/><rect class="cls-5" y="36.07" width="64" height="4.04"/><polygon class="cls-5" points="0 44.15 0 47.85 0 48.18 64 48.18 64 47.85 64 44.15 64 43.81 0 43.81 0 44.15"/><polygon class="cls-5" points="0 52.22 0 55.92 0 56.26 64 56.26 64 55.92 64 52.22 64 51.88 0 51.88 0 52.22"/><rect class="cls-5" y="59.96" width="64" height="4.04"/></g></g></pattern></defs><title>myself</title><g class="cls-6"><g id="Design"><path class="cls-7" d="M6876.62,5679.63c0,4.95-4.46,11-12.57,11s-12.43-6.1-12.43-11,4.4-9,12.5-9S6876.62,5674.68,6876.62,5679.63Z" transform="translate(-6802.52 -5555.34)"/><path class="cls-8" d="M6877.39,5568.11h-26.55c-36.19,0-37,49.31-37,49.31v9c0,8.74,13,45.72,23.58,53.39,14.77,10.75,38.25,10.75,53,0,10.54-7.67,23.4-44.65,23.4-53.39v-9S6913.58,5568.11,6877.39,5568.11Z" transform="translate(-6802.52 -5555.34)"/><ellipse class="cls-8" cx="6812.45" cy="5641.55" rx="8.69" ry="11.04" transform="translate(-8796.37 914.2) rotate(-45)"/><ellipse class="cls-8" cx="6915.79" cy="5641.55" rx="11.04" ry="8.69" transform="translate(-8766.11 987.2) rotate(-45)"/><path class="cls-5" d="M6865.93,5677.49a1,1,0,0,1,0-2,2.09,2.09,0,0,0,2.08-2.08,2.06,2.06,0,0,0-.54-1.38,1,1,0,0,1,0-1.33,2.06,2.06,0,0,0,.54-1.38,2.09,2.09,0,0,0-2.08-2.08,1,1,0,0,1,0-2,4.09,4.09,0,0,1,4.08,4.08,4,4,0,0,0,0,4.08A4.09,4.09,0,0,1,6865.93,5677.49Z" transform="translate(-6802.52 -5555.34)"/><path class="cls-9" d="M6885.68,5695.83a71.32,71.32,0,0,0-41.1,0c-3.3.86-6.67,5-7.74,9.06a276.31,276.31,0,0,0-8.56,69.31h74a275.44,275.44,0,0,0-8.59-69.31C6892.61,5700.85,6889,5696.7,6885.68,5695.83Z" transform="translate(-6802.52 -5555.34)"/><path class="cls-10" d="M6885.68,5695.83a71.32,71.32,0,0,0-41.1,0c-3.3.86-6.67,5-7.74,9.06a276.31,276.31,0,0,0-8.56,69.31h74a275.44,275.44,0,0,0-8.59-69.31C6892.61,5700.85,6889,5696.7,6885.68,5695.83Z" transform="translate(-6802.52 -5555.34)"/><path class="cls-8" d="M6876.46,5694.36l-0.83-4a8,8,0,0,0-7.88-6.16h-5a8,8,0,0,0-7.88,6.17l-0.83,4c-0.08,0,.73,9.48,11.2,9.5S6876.54,5694.33,6876.46,5694.36Z" transform="translate(-6802.52 -5555.34)"/><path class="cls-11" d="M6877.81,5694.25c0,6.45-5.62,11.5-12.54,11.5s-12.54-5.09-12.54-11.54l-2,.36c0,7.48,6.52,13.05,14.54,13.05s14.54-5.52,14.54-13" transform="translate(-6802.52 -5555.34)"/><path class="cls-12" d="M6914.73,5587.7a33.55,33.55,0,0,0-2.29-7.66c-5-10.85-10.51-15-13.07-16.48a1.21,1.21,0,0,1,.39-0.15,1,1,0,1,0,0-2c-0.19,0-1.18.11-2.28,0.23l0.21-.89a1,1,0,0,0-1.57-1l-1.92,1.43a81.36,81.36,0,0,0-19.2-3.86,113.45,113.45,0,0,0-12.17-1.92,1,1,0,0,0-1,.68,1,1,0,0,0,.26,1c-2.7.15-5.37,0.43-8,.83-1.37-.05-2.73-0.08-4-0.08-4.87,0-8.43.37-10.59,1.11a1,1,0,0,0,.3,1.95s0.57,0,1.38.06l-0.63.2a44.73,44.73,0,0,0-13,6.59c-3.53,1.55-5.78,3-6.88,4.36a1,1,0,0,0,.76,1.62,32.87,32.87,0,0,0-3.77,6.08c-2,2.92-5.41,8.55-6.1,13.8a1,1,0,0,0,1.83.68l0.39-.6a101.1,101.1,0,0,0-1,20c0.73,14.26,1.46,16.84,2,18.72a12.37,12.37,0,0,1,.3,1.22c0.17,1.34.85,5.79,2.3,7a1,1,0,0,0,.64.23,1,1,0,0,0,.39-0.08l0.15-.09a1,1,0,0,0,.46-0.76c0-.16,1.1-16.22,1.81-21.56s3.44-13,7.87-17.65c1.13-1.18,2.93-2,5.51-2.4h0.06c0.41-.07.86-0.12,1.31-0.17l0.6-.06,1.11-.08,0.95,0,1,0h1.18l0.93,0,1.26,0,1.09,0,1.09,0.06,1.43,0.09,0.33,0c3.85,0.29,8.15.76,12.86,1.27l4.4,0.47,1.25,0.12,0.62,0.06,0.92,0.07,1.23,0.08,0.62,0,1.91,0.08h0.14l1.8,0h1.81l1,0h0.37l1-.05,0.35,0,0.78-.06a63.22,63.22,0,0,0,12-2.32,25,25,0,0,1,4.36-1.07h0a7.1,7.1,0,0,1,.78.31c0.08,0,.17.16,0.26,0.18s0.4,0.15.61,0.21,0.15,0.08.22,0.11c0.25,0.09.5,0.2,0.76,0.31l0.05,0a15.55,15.55,0,0,1,4.76,3.64c0.15,0.17.31,0.34,0.46,0.52h0a19.14,19.14,0,0,1,4.15,10.25c0.5,4.78,1.13,10,1.68,14.68,0.63,5.29,1.18,9.86,1.18,10.95a1.49,1.49,0,0,0,1.41,1.72h0c1.31,0,2.52-1.89,3.36-5a37.5,37.5,0,0,0,1.11-7.08c0.07-.94.15-2,0.23-3.15,0.23-3,.5-6.58.7-10.51C6916.85,5605.95,6917.52,5596.55,6914.73,5587.7Z" transform="translate(-6802.52 -5555.34)"/><path class="cls-13" d="M6910.9,5605.74a66.15,66.15,0,0,1-.82-7.42c-0.26-2.65,1.34-3.76,2.77-5.59,0.15-.2.29-0.53,0-0.66a25.92,25.92,0,0,0-4.48-1.22,4,4,0,0,0,2.4-2.16,1,1,0,0,0-.49-0.92c-0.69-.52.72-1.37,1.17-1.94,0.19-.24.28-0.62-0.14-0.68a10.91,10.91,0,0,0-3.1-.19c0.05,0-4.05.57-3.26-.08,1.14-.93,2.42-1.64,3.49-2.65,0.19-.18.28-0.69-0.14-0.68-1.92.05-9.22,1.56-8.14-1.23,0.84-2.17,2.14-4,1.78-6.31,0-.26-0.34-0.25-0.54-0.17a25.48,25.48,0,0,0-4.1,2.12,3.69,3.69,0,0,1-3.08.72,8.8,8.8,0,0,0,.59-2.28,0.29,0.29,0,0,0-.31-0.34,16.88,16.88,0,0,0-4.34,1.08c-2.76,1.07-2.9,2.07-2-1.35,0.13-.52-0.42-0.52-0.74-0.23-0.74.68-4.84,6.1-5.48,2.92-0.32-1.58.15-3.27-1.16-4.52-0.23-.21-0.64.09-0.74,0.27-0.64,1.17-1.28,2.34-1.92,3.51-0.56,1-1.1,3.6-1.64,1.26a22.73,22.73,0,0,0-2.44-6.41c-0.25-.43-0.86.14-0.89,0.43q-0.08.72-.17,1.43a7.61,7.61,0,0,0-3.07-2.26,0.65,0.65,0,0,0-.73.55,21.12,21.12,0,0,0,.19,2.87,8.05,8.05,0,0,0-4.53-3.28,0.6,0.6,0,0,0-.69.75,10.42,10.42,0,0,1,1.44,4.06,5.85,5.85,0,0,0-2.81-1.5,0.63,0.63,0,0,0-.73.66c0.12,0.54.24,1.07,0.35,1.61-2.21-2.26-4.58-4.89-8-5.16a0.64,0.64,0,0,0-.62.67c0.55,1.52,2,4.1-.65,4.22-0.3,0-.85.46-0.58,0.76,2.19,2.53.31,1.91-1.93,1.34-1.3-.33-2.57-0.59-3.89-0.84-3.22-.61-6.78-1.66-10.05-0.81-0.26.07-.69,0.48-0.47,0.75a14.83,14.83,0,0,0,2.72,2.3,12.77,12.77,0,0,0-4.32-.17,0.63,0.63,0,0,0-.5.66c0.22,0.58.4,1.17,0.57,1.76a15.08,15.08,0,0,0-2.48-.27c-0.31,0-.84.48-0.58,0.76a15.6,15.6,0,0,0,1.58,1.49c-1.23.06-2.46,0.07-3.69,0.19-0.38,0-.86.51-0.52,0.84a6.69,6.69,0,0,0,2.42,1.38,32.78,32.78,0,0,0-7.25.67c-0.34.09-.71,0.54-0.4,0.82,1,1-3.32,2-3.84,2.24-0.21.11-.54,0.46-0.35,0.71a2.46,2.46,0,0,0,1.36,1.14c1.58,0.84-.34.92-1.2,1.25a5.63,5.63,0,0,0-2.81,1.89,1.18,1.18,0,0,0,.38,1.46c1.79,1.22.12,2.13-.69,3.47a0.34,0.34,0,0,0,.23.57c2.61,0.34,4.94.64,4.47,3.84a25.45,25.45,0,0,1-1.38,4.55c-1,3-2.42,6.11-2.65,9.24-0.65,9.29,3.49,12.53.54,21.77a1.94,1.94,0,0,0,.82,1.2,1,1,0,0,0,.46-0.76c0-.16,1.1-16.22,1.81-21.56s3.44-13,7.87-17.65c1.82-1.9,5.36-2.79,11.12-2.79,5.27,0,11.93.72,19.64,1.56l4.4,0.47a82.18,82.18,0,0,0,8.67.48,64.71,64.71,0,0,0,17.07-2.27,21,21,0,0,1,4.38-.83c3.67,0,11,5.18,12.06,15.09,0.5,4.78,1.13,10,1.68,14.68,0.63,5.29,1.18,9.86,1.18,10.95a1.49,1.49,0,0,0,1.41,1.72h0c1.31,0,2.52-1.89,3.36-5-0.09-4.22-.33-8.17-0.73-14A106.39,106.39,0,0,0,6910.9,5605.74Z" transform="translate(-6802.52 -5555.34)"/><path class="cls-14" d="M6867.15,5598.58s-12.26-17.33-26.69-19.12C6840.46,5579.46,6855.54,5593.12,6867.15,5598.58Z" transform="translate(-6802.52 -5555.34)"/><path class="cls-14" d="M6861.29,5598.16s-18.87-14.18-24.19-15.34C6837.1,5582.82,6851.1,5596.9,6861.29,5598.16Z" transform="translate(-6802.52 -5555.34)"/><path class="cls-14" d="M6848.71,5596.69s-11.82-9.45-16.38-9.77C6832.33,5586.92,6842.41,5594.9,6848.71,5596.69Z" transform="translate(-6802.52 -5555.34)"/><path class="cls-14" d="M6841.77,5596.48s-11.62-4.59-18.33-3.38C6823.43,5593.09,6837.1,5596.06,6841.77,5596.48Z" transform="translate(-6802.52 -5555.34)"/><path class="cls-14" d="M6834.06,5597.53s-10.15-1.32-13.95-.58C6820.12,5596.95,6829.72,5598.47,6834.06,5597.53Z" transform="translate(-6802.52 -5555.34)"/><path class="cls-14" d="M6843.91,5596.38s-13.68-4.58-17.41-6.9C6826.5,5589.48,6836.78,5590.28,6843.91,5596.38Z" transform="translate(-6802.52 -5555.34)"/><path class="cls-14" d="M6830.28,5599.29s-7.71,1-10.69,2.49C6819.58,5601.77,6827.38,5602.09,6830.28,5599.29Z" transform="translate(-6802.52 -5555.34)"/><path class="cls-14" d="M6869.28,5598.39s-11.53-19.91-12.6-23.28A44.74,44.74,0,0,1,6869.28,5598.39Z" transform="translate(-6802.52 -5555.34)"/><path class="cls-14" d="M6881.47,5598.07s11-17,16.83-19.59C6898.3,5578.48,6888.19,5595.58,6881.47,5598.07Z" transform="translate(-6802.52 -5555.34)"/><path class="cls-14" d="M6889,5597s9.37-11.08,15.5-12C6904.52,5585,6893.82,5593.5,6889,5597Z" transform="translate(-6802.52 -5555.34)"/><path class="cls-14" d="M6894,5596.22s9.12-5.54,14-6.74C6908,5589.48,6900.54,5595.42,6894,5596.22Z" transform="translate(-6802.52 -5555.34)"/><path class="cls-14" d="M6899.63,5596.63s7.3-1.37,11.11-.64A18.25,18.25,0,0,1,6899.63,5596.63Z" transform="translate(-6802.52 -5555.34)"/><path class="cls-14" d="M6873.1,5598.87s-5.31-19.11-6.47-25c0,0,5.47,16.86,6.72,19.19s-0.42-14.93,0-18.95C6873.35,5574.07,6879.48,5602.41,6873.1,5598.87Z" transform="translate(-6802.52 -5555.34)"/><path class="cls-14" d="M6878.32,5598.55s7-15.41,12.44-20C6890.76,5578.56,6884.54,5594.86,6878.32,5598.55Z" transform="translate(-6802.52 -5555.34)"/><path class="cls-15" d="M6902.35,5771h-74c-2,27.61,1.08,55.74,9.46,81.48q11.29,2.12,21.45,4.22c-3.37-22.06-6.47-46.13-8.41-69.9-0.46-4.07,2.09-7.81,9-7.81h13.81c6.84,0,9.3,3,10,7.81,4.7,32.26,16.65,69.4,16.65,69.4l23-4.22C6912,5819.85,6905.88,5799,6902.35,5771Z" transform="translate(-6802.52 -5555.34)"/><path class="cls-16" d="M6923.36,5852c-4-3.58-23.45,4.24-23,4.22-0.28,2.66,1,4.79,2.86,4.79h28.59a3.56,3.56,0,0,0,2.56-2.17C6936.18,5854.53,6926.11,5854.48,6923.36,5852Z" transform="translate(-6802.52 -5555.34)"/><path class="cls-16" d="M6837.81,5852.7a0.46,0.46,0,0,1,0-.21c4.19-2.85,21.93,4.23,21.46,4.22,0.28,2.66-1.1,4.29-3,4.29h-21.93a3.66,3.66,0,0,1-2.56-2.17C6830.67,5856.52,6837.56,5854.76,6837.81,5852.7Z" transform="translate(-6802.52 -5555.34)"/><path class="cls-17" d="M6882.6,5655.47h7.25c14.64,0,14.66-10.45,14.68-18.08a37.46,37.46,0,0,1,.13-3.86,2.41,2.41,0,0,0-.64-1.92c-2.77-3.1-12.92-3.38-14.93-3.38H6887a63.17,63.17,0,0,0-12.23,1,5,5,0,0,0-3.71,2.37c-1.68,3.16.46,9.35,2.77,15C6877.23,5654.82,6881.4,5655.47,6882.6,5655.47Z" transform="translate(-6802.52 -5555.34)"/><path class="cls-17" d="M6853,5629.29a63.87,63.87,0,0,0-12.58-1.1,10.66,10.66,0,0,0-1.61.11l-0.76,0,0,0.13c-3,0-11.71.42-14.25,3.25a2,2,0,0,0-.64,1.72,38,38,0,0,1,.13,3.9c0,7.65,0,18.12,14.68,18.12l7.16,0,0.05-.52,0,0.52c1.2,0,5.37-.64,8.75-8.88,2.31-5.63,4.45-11.81,2.77-15A4.92,4.92,0,0,0,6853,5629.29Z" transform="translate(-6802.52 -5555.34)"/><path class="cls-18" d="M6863.88,5622.57c-31.21,0-46.65,2.47-47.29,2.57l-1.78.29,1.66,12.62c3.35,19.6,10.26,22.3,17.24,22.3,0.66,0,1.31,0,1.94,0s1.1,0,1.63,0c0.85,0,1.78.06,2.77,0.12s2.26,0.14,3.45.14c5.23,0,11.64-1.34,14.81-11.77,2.45-8.06,4.6-10.95,5.58-11.91,1,1,3.12,3.85,5.58,11.91,3.18,10.43,9.58,11.77,14.81,11.77,1.19,0,2.34-.07,3.45-0.14s1.92-.12,2.77-0.12c0.52,0,1.07,0,1.63,0s1.28,0,1.94,0h0c7,0,13.89-2.7,17.25-22.37l1.65-12.55-1.78-.29C6910.53,5625,6895.09,5622.57,6863.88,5622.57Zm18.86,32h-0.14c-0.74,0-4.6-.4-7.83-8.27-2.1-5.1-4.31-11.32-2.81-14.13,0.32-.59,1-1.43,3-1.85a63,63,0,0,1,12.38-1,5.76,5.76,0,0,1,1.56.19h0.16c4.59,0,12.16.66,14.19,2.92a1.16,1.16,0,0,1,.39,1,38.25,38.25,0,0,0-.13,4c0,7.63,0,17.09-13.68,17.09H6883l-0.11,0Zm-37.58,0h-0.09l-7.15,0c-13.64,0-13.66-9.49-13.68-17.12a38.93,38.93,0,0,0-.13-4,1,1,0,0,1,.39-0.94c2-2.27,9.59-2.92,14.19-2.92h0.13l0-.17a10,10,0,0,1,1.56-.11,65,65,0,0,1,12.38,1.08c2.05,0.42,2.71,1.24,3,1.83,1.5,2.81-.72,9-2.81,14.12C6849.76,5654.15,6845.9,5654.54,6845.16,5654.54Z" transform="translate(-6802.52 -5555.34)"/></g></g></svg>
